<svg width="683" height="106" viewBox="0 0 683 106" fill="none" xmlns="http://www.w3.org/2000/svg">
<g opacity="0.502302">
<path d="M0 103.234V2.02419H46.2672C55.5206 2.02419 63.4728 3.51824 70.1237 6.50633C76.871 9.49442 82.0761 13.832 85.7389 19.519C89.4017 25.1096 91.2331 31.7605 91.2331 39.4717C91.2331 47.0865 89.4017 53.6892 85.7389 59.2799C82.0761 64.7741 76.871 69.0152 70.1237 72.0033C63.4728 74.895 55.5206 76.3409 46.2672 76.3409H15.9044L28.6278 64.3403V103.234H0ZM62.6053 103.234L37.4475 66.3645H67.9549L93.2573 103.234H62.6053ZM28.6278 67.3766L15.9044 54.2194H44.5322C50.5084 54.2194 54.9423 52.9181 57.834 50.3156C60.8221 47.7131 62.3161 44.0984 62.3161 39.4717C62.3161 34.7486 60.8221 31.0858 57.834 28.4832C54.9423 25.8807 50.5084 24.5795 44.5322 24.5795H15.9044L28.6278 11.4222V67.3766Z" fill="url(#paint0_linear_214_9756)"/>
<path d="M107.027 103.234V2.02419H130.594L172.524 70.8466H160.089L200.862 2.02419H224.43L224.719 103.234H198.404L198.115 42.0742H202.597L172.09 93.2573H159.367L127.992 42.0742H133.486V103.234H107.027Z" fill="url(#paint1_linear_214_9756)"/>
<path d="M295.58 105.258C287.58 105.258 280.158 104.005 273.314 101.499C266.471 98.8961 260.543 95.2333 255.53 90.5102C250.614 85.7871 246.759 80.2447 243.963 73.8829C241.168 67.4248 239.77 60.3401 239.77 52.6289C239.77 44.9177 241.168 37.8813 243.963 31.5195C246.759 25.0614 250.663 19.4708 255.675 14.7477C260.687 10.0246 266.615 6.40994 273.459 3.9038C280.399 1.30127 287.965 0 296.159 0C305.701 0 314.232 1.59043 321.75 4.7713C329.269 7.95218 335.486 12.5307 340.402 18.5069L322.184 34.9896C318.714 31.2304 314.955 28.4351 310.906 26.6036C306.954 24.6758 302.52 23.7119 297.604 23.7119C293.267 23.7119 289.315 24.3867 285.749 25.7361C282.182 27.0856 279.146 29.0616 276.64 31.6641C274.134 34.1703 272.158 37.2065 270.712 40.773C269.362 44.243 268.687 48.195 268.687 52.6289C268.687 56.8701 269.362 60.7739 270.712 64.3403C272.158 67.9068 274.134 70.9912 276.64 73.5938C279.146 76.0999 282.134 78.0759 285.604 79.5218C289.17 80.8712 293.074 81.5459 297.315 81.5459C301.556 81.5459 305.701 80.8712 309.75 79.5218C313.798 78.0759 317.895 75.6662 322.039 72.2925L338.088 92.3898C332.305 96.5346 325.606 99.7155 317.991 101.932C310.376 104.149 302.906 105.258 295.58 105.258ZM312.786 88.6306V50.4602H338.088V92.3898L312.786 88.6306Z" fill="url(#paint2_linear_214_9756)"/>
<path d="M424.918 46.4118H471.619V68.5333H424.918V46.4118ZM426.943 103.234H398.315V2.02419H477.692V24.1457H426.943V103.234Z" fill="url(#paint3_linear_214_9756)"/>
<path d="M486.02 103.234V85.3052L545.589 14.6031L549.059 24.724H487.321V2.02419H574.506V19.9527L514.937 90.6548L511.467 80.5338H576.675V103.234H486.02Z" fill="url(#paint4_linear_214_9756)"/>
<path d="M638.825 105.258C630.825 105.258 623.403 104.005 616.559 101.499C609.812 98.8961 603.932 95.2333 598.92 90.5102C594.004 85.7871 590.148 80.2447 587.353 73.8829C584.557 67.4248 583.16 60.3401 583.16 52.6289C583.16 44.9177 584.557 37.8813 587.353 31.5195C590.148 25.0614 594.004 19.4708 598.92 14.7477C603.932 10.0246 609.812 6.40994 616.559 3.9038C623.403 1.30127 630.825 0 638.825 0C648.175 0 656.513 1.63863 663.838 4.9159C671.26 8.19315 677.429 12.9163 682.345 19.0852L664.127 35.5679C660.85 31.7123 657.235 28.7724 653.284 26.7482C649.428 24.724 645.09 23.7119 640.271 23.7119C636.126 23.7119 632.319 24.3867 628.849 25.7361C625.379 27.0856 622.391 29.0616 619.884 31.6641C617.475 34.1703 615.547 37.2065 614.101 40.773C612.752 44.3394 612.077 48.2914 612.077 52.6289C612.077 56.9665 612.752 60.9185 614.101 64.4849C615.547 68.0513 617.475 71.1358 619.884 73.7383C622.391 76.2445 625.379 78.1723 628.849 79.5218C632.319 80.8712 636.126 81.5459 640.271 81.5459C645.09 81.5459 649.428 80.5339 653.284 78.5097C657.235 76.4855 660.85 73.5456 664.127 69.69L682.345 86.1727C677.429 92.2452 671.26 96.9683 663.838 100.342C656.513 103.619 648.175 105.258 638.825 105.258Z" fill="url(#paint5_linear_214_9756)"/>
</g>
<defs>
<linearGradient id="paint0_linear_214_9756" x1="-486.262" y1="-66.7726" x2="-447.608" y2="287.08" gradientUnits="userSpaceOnUse">
<stop stop-color="#311B92"/>
<stop offset="0.668612" stop-color="#006064"/>
<stop offset="1" stop-color="#F8BBD0"/>
</linearGradient>
<linearGradient id="paint1_linear_214_9756" x1="-486.262" y1="-66.7726" x2="-447.608" y2="287.08" gradientUnits="userSpaceOnUse">
<stop stop-color="#311B92"/>
<stop offset="0.668612" stop-color="#006064"/>
<stop offset="1" stop-color="#F8BBD0"/>
</linearGradient>
<linearGradient id="paint2_linear_214_9756" x1="-486.262" y1="-66.7726" x2="-447.608" y2="287.08" gradientUnits="userSpaceOnUse">
<stop stop-color="#311B92"/>
<stop offset="0.668612" stop-color="#006064"/>
<stop offset="1" stop-color="#F8BBD0"/>
</linearGradient>
<linearGradient id="paint3_linear_214_9756" x1="-486.262" y1="-66.7726" x2="-447.608" y2="287.08" gradientUnits="userSpaceOnUse">
<stop stop-color="#311B92"/>
<stop offset="0.668612" stop-color="#006064"/>
<stop offset="1" stop-color="#F8BBD0"/>
</linearGradient>
<linearGradient id="paint4_linear_214_9756" x1="-486.262" y1="-66.7726" x2="-447.608" y2="287.08" gradientUnits="userSpaceOnUse">
<stop stop-color="#311B92"/>
<stop offset="0.668612" stop-color="#006064"/>
<stop offset="1" stop-color="#F8BBD0"/>
</linearGradient>
<linearGradient id="paint5_linear_214_9756" x1="-486.262" y1="-66.7726" x2="-447.608" y2="287.08" gradientUnits="userSpaceOnUse">
<stop stop-color="#311B92"/>
<stop offset="0.668612" stop-color="#006064"/>
<stop offset="1" stop-color="#F8BBD0"/>
</linearGradient>
</defs>
</svg>
