<svg width="25" height="24" viewBox="0 0 25 24" fill="none" xmlns="http://www.w3.org/2000/svg">
<g id="carbon:location-filled">
<path id="Vector" d="M12.6675 1.5C10.4802 1.50258 8.38332 2.3726 6.83671 3.91922C5.29009 5.46584 4.42007 7.56276 4.41749 9.75C4.41487 11.5374 4.99872 13.2763 6.07949 14.7C6.07949 14.7 6.30449 14.9963 6.34124 15.039L12.6675 22.5L18.9967 15.0353C19.0297 14.9955 19.2555 14.7 19.2555 14.7L19.2562 14.6978C20.3365 13.2747 20.9201 11.5366 20.9175 9.75C20.9149 7.56276 20.0449 5.46584 18.4983 3.91922C16.9517 2.3726 14.8547 1.50258 12.6675 1.5ZM12.6675 12.75C12.0741 12.75 11.4941 12.5741 11.0008 12.2444C10.5074 11.9148 10.1229 11.4462 9.89585 10.8981C9.66879 10.3499 9.60938 9.74667 9.72513 9.16473C9.84089 8.58279 10.1266 8.04824 10.5462 7.62868C10.9657 7.20912 11.5003 6.9234 12.0822 6.80764C12.6642 6.69189 13.2674 6.7513 13.8155 6.97836C14.3637 7.20542 14.8323 7.58994 15.1619 8.08329C15.4915 8.57664 15.6675 9.15666 15.6675 9.75C15.6665 10.5453 15.3501 11.3078 14.7877 11.8702C14.2253 12.4326 13.4628 12.749 12.6675 12.75Z" fill="white"/>
</g>
</svg>
